<svg width="45" height="44" viewBox="0 0 45 44" fill="none" xmlns="http://www.w3.org/2000/svg">
<path d="M22.5 44C34.6503 44 44.5 34.1503 44.5 22C44.5 9.84974 34.6503 0 22.5 0C10.3497 0 0.5 9.84974 0.5 22C0.5 34.1503 10.3497 44 22.5 44Z" fill="url(#paint0_radial_0_1926)"/>
<path d="M22.5 44C34.6503 44 44.5 34.1503 44.5 22C44.5 9.84974 34.6503 0 22.5 0C10.3497 0 0.5 9.84974 0.5 22C0.5 34.1503 10.3497 44 22.5 44Z" fill="url(#paint1_radial_0_1926)"/>
<path d="M29.331 13.6782C29.0333 13.6782 28.7424 13.7665 28.4949 13.9318C28.2475 14.0972 28.0546 14.3322 27.9407 14.6072C27.8268 14.8821 27.797 15.1847 27.8551 15.4766C27.9132 15.7685 28.0565 16.0366 28.2669 16.2471C28.4774 16.4575 28.7455 16.6008 29.0374 16.6589C29.3293 16.7169 29.6318 16.6871 29.9068 16.5732C30.1818 16.4594 30.4168 16.2665 30.5821 16.019C30.7475 15.7716 30.8357 15.4806 30.8357 15.183C30.8357 14.7839 30.6772 14.4012 30.395 14.119C30.1128 13.8368 29.7301 13.6782 29.331 13.6782Z" fill="white"/>
<path d="M22.6048 15.6494C21.3433 15.6465 20.1094 16.0184 19.0597 16.718C18.01 17.4177 17.1918 18.4134 16.7091 19.5789C16.2264 20.7444 16.1008 22.027 16.3484 23.2639C16.596 24.5009 17.2055 25.6364 18.0997 26.5263C18.9938 27.4161 20.1322 28.0203 21.3703 28.262C22.6084 28.5037 23.8904 28.3721 25.0535 27.8838C26.2167 27.3955 27.2086 26.5727 27.9032 25.5197C28.5978 24.4667 28.9639 23.231 28.955 21.9695C28.9431 20.2918 28.2693 18.6866 27.0801 17.5031C25.8909 16.3195 24.2825 15.6534 22.6048 15.6494ZM22.6048 26.0776C21.7976 26.0806 21.0077 25.844 20.3351 25.3977C19.6625 24.9514 19.1375 24.3156 18.8265 23.5707C18.5155 22.8258 18.4326 22.0054 18.5883 21.2133C18.7439 20.4213 19.1311 19.6933 19.7008 19.1214C20.2705 18.5496 20.9971 18.1597 21.7886 18.0012C22.58 17.8426 23.4008 17.9225 24.1468 18.2307C24.8928 18.5389 25.5306 19.0615 25.9794 19.7325C26.4281 20.4034 26.6677 21.1925 26.6677 21.9996C26.6559 23.0721 26.2236 24.0972 25.4637 24.8542C24.7039 25.6112 23.6773 26.0397 22.6048 26.0475V26.0776Z" fill="white"/>
<path d="M27.6459 34.8808H17.3532C15.2991 34.8769 13.3302 34.0591 11.8777 32.6066C10.4253 31.1542 9.60749 29.1853 9.60352 27.1312V16.8234C9.60749 14.7693 10.4253 12.8004 11.8777 11.3479C13.3302 9.89547 15.2991 9.07771 17.3532 9.07373H27.6459C29.7 9.07771 31.6689 9.89547 33.1214 11.3479C34.5739 12.8004 35.3916 14.7693 35.3956 16.8234V27.1312C35.3916 29.1853 34.5739 31.1542 33.1214 32.6066C31.6689 34.0591 29.7 34.8769 27.6459 34.8808ZM17.3532 11.4964C15.9416 11.5004 14.589 12.0629 13.5908 13.0611C12.5927 14.0592 12.0302 15.4118 12.0262 16.8234V27.1312C12.0302 28.5414 12.5932 29.8924 13.5918 30.8882C14.5903 31.8839 15.943 32.4431 17.3532 32.4431H27.6459C29.0561 32.4431 30.4088 31.8839 31.4073 30.8882C32.4059 29.8924 32.9689 28.5414 32.9729 27.1312V16.8234C32.9689 15.4118 32.4064 14.0592 31.4083 13.0611C30.4101 12.0629 29.0575 11.5004 27.6459 11.4964H17.3532Z" fill="white"/>
<defs>
<radialGradient id="paint0_radial_0_1926" cx="0" cy="0" r="1" gradientUnits="userSpaceOnUse" gradientTransform="translate(16.8569 44.0318) scale(54.8476 54.8476)">
<stop stop-color="#FFDD55"/>
<stop offset="0.328" stop-color="#FF543F"/>
<stop offset="0.348" stop-color="#FC5245"/>
<stop offset="0.504" stop-color="#E64771"/>
<stop offset="0.643" stop-color="#D53E91"/>
<stop offset="0.761" stop-color="#CC39A4"/>
<stop offset="0.841" stop-color="#C837AB"/>
</radialGradient>
<radialGradient id="paint1_radial_0_1926" cx="0" cy="0" r="1" gradientUnits="userSpaceOnUse" gradientTransform="translate(7.58027 -0.549336) scale(36.4189 24.2659)">
<stop stop-color="#4168C9"/>
<stop offset="0.999" stop-color="#4168C9" stop-opacity="0"/>
</radialGradient>
</defs>
</svg>
