<svg width="45" height="44" viewBox="0 0 45 44" fill="none" xmlns="http://www.w3.org/2000/svg">
<path d="M22.5 44C34.6502 44 44.5 34.1503 44.5 22C44.5 9.84974 34.6502 0 22.5 0C10.3497 0 0.5 9.84974 0.5 22C0.5 34.1503 10.3497 44 22.5 44Z" fill="url(#paint0_linear_0_1917)"/>
<path d="M10.6113 34.4639L12.4472 27.6171C11.1143 25.1912 10.6157 22.3944 11.0279 19.6573C11.4402 16.9202 12.7406 14.3945 14.7289 12.4688C16.7172 10.5431 19.2833 9.32416 22.0322 8.99967C24.7811 8.67517 27.5605 9.26307 29.9425 10.6729C32.3246 12.0827 34.1773 14.2362 35.2156 16.8021C36.2539 19.368 36.4201 22.204 35.6888 24.8736C34.9574 27.5432 33.369 29.8985 31.168 31.577C28.967 33.2554 26.2754 34.164 23.5074 34.163C21.4078 34.1636 19.3405 33.6467 17.4882 32.6582L10.6113 34.4639ZM17.8343 30.0549L18.2707 30.3107C20.414 31.5781 22.9469 32.0179 25.392 31.5473C27.8372 31.0767 30.0258 29.7281 31.5455 27.7557C33.0653 25.7832 33.8112 23.323 33.6428 20.8387C33.4744 18.3544 32.4033 16.0174 30.6313 14.2681C28.8592 12.5188 26.5086 11.4779 24.0223 11.3416C21.536 11.2053 19.0857 11.9829 17.1331 13.5279C15.1804 15.073 13.8601 17.2789 13.4211 19.7299C12.9821 22.1809 13.4545 24.7078 14.7495 26.8346L15.0204 27.271L13.9971 31.0932L17.8343 30.0549Z" fill="white"/>
<path fill-rule="evenodd" clip-rule="evenodd" d="M28.2016 23.2397C27.9488 23.0438 27.656 22.9058 27.344 22.8356C27.0319 22.7654 26.7083 22.7646 26.3959 22.8334C25.9294 23.029 25.6284 23.7664 25.3124 24.1426C25.2512 24.2327 25.1574 24.2955 25.0508 24.318C24.9442 24.3404 24.833 24.3207 24.7406 24.2629C23.0182 23.5998 21.5741 22.3681 20.6476 20.7718C20.5609 20.6774 20.5128 20.5539 20.5128 20.4257C20.5128 20.2976 20.5609 20.174 20.6476 20.0796C20.9978 19.7525 21.2526 19.3364 21.3849 18.8758C21.4328 18.352 21.3172 17.8263 21.0539 17.371C20.8131 16.8443 20.5423 16.0769 20.0005 15.7759C19.751 15.6785 19.4799 15.6494 19.2154 15.6917C18.9509 15.7341 18.7024 15.8463 18.4957 16.0167C18.1336 16.3277 17.8466 16.7168 17.6563 17.1546C17.4661 17.5925 17.3775 18.0678 17.3972 18.5448C17.3983 18.8131 17.4286 19.0805 17.4875 19.3423C17.6616 19.9615 17.9198 20.5539 18.255 21.1029C18.5031 21.5239 18.7743 21.9308 19.0676 22.3218C19.9969 23.623 21.1792 24.7234 22.5436 25.5571C23.2228 25.9868 23.95 26.3353 24.7105 26.5954C25.5029 26.9499 26.376 27.085 27.2386 26.9866C27.7243 26.9317 28.1903 26.7626 28.5982 26.4933C29.0062 26.2239 29.3447 25.8618 29.586 25.4367C29.703 25.1616 29.7395 24.8589 29.6914 24.5639C29.4958 23.9319 28.6832 23.5407 28.2016 23.2397Z" fill="white"/>
<defs>
<linearGradient id="paint0_linear_0_1917" x1="39.1307" y1="4.9432" x2="9.10986" y2="40.0057" gradientUnits="userSpaceOnUse">
<stop stop-color="#60FC7C"/>
<stop offset="1" stop-color="#4AB161"/>
</linearGradient>
</defs>
</svg>
