<svg width="800" height="800" viewBox="0 0 800 800" fill="none" xmlns="http://www.w3.org/2000/svg">
<rect width="800" height="800" fill="#CCCCCC"/>
<path d="M248.08 454.18C248.373 454.18 248.633 454.293 248.86 454.52L250.98 456.82C249.807 458.273 248.36 459.387 246.64 460.16C244.933 460.933 242.88 461.32 240.48 461.32C238.333 461.32 236.4 460.953 234.68 460.22C232.973 459.487 231.513 458.467 230.3 457.16C229.087 455.853 228.153 454.293 227.5 452.48C226.86 450.667 226.54 448.687 226.54 446.54C226.54 444.367 226.887 442.38 227.58 440.58C228.273 438.767 229.247 437.207 230.5 435.9C231.767 434.593 233.273 433.58 235.02 432.86C236.767 432.127 238.7 431.76 240.82 431.76C242.927 431.76 244.793 432.107 246.42 432.8C248.06 433.493 249.453 434.4 250.6 435.52L248.8 438.02C248.693 438.18 248.553 438.32 248.38 438.44C248.22 438.56 247.993 438.62 247.7 438.62C247.5 438.62 247.293 438.567 247.08 438.46C246.867 438.34 246.633 438.2 246.38 438.04C246.127 437.867 245.833 437.68 245.5 437.48C245.167 437.28 244.78 437.1 244.34 436.94C243.9 436.767 243.387 436.627 242.8 436.52C242.227 436.4 241.56 436.34 240.8 436.34C239.507 436.34 238.32 436.573 237.24 437.04C236.173 437.493 235.253 438.16 234.48 439.04C233.707 439.907 233.107 440.973 232.68 442.24C232.253 443.493 232.04 444.927 232.04 446.54C232.04 448.167 232.267 449.613 232.72 450.88C233.187 452.147 233.813 453.213 234.6 454.08C235.387 454.947 236.313 455.613 237.38 456.08C238.447 456.533 239.593 456.76 240.82 456.76C241.553 456.76 242.213 456.72 242.8 456.64C243.4 456.56 243.947 456.433 244.44 456.26C244.947 456.087 245.42 455.867 245.86 455.6C246.313 455.32 246.76 454.98 247.2 454.58C247.333 454.46 247.473 454.367 247.62 454.3C247.767 454.22 247.92 454.18 248.08 454.18ZM262.536 440.16C264.056 440.16 265.436 440.407 266.676 440.9C267.929 441.393 268.996 442.093 269.876 443C270.769 443.907 271.456 445.013 271.936 446.32C272.416 447.627 272.656 449.087 272.656 450.7C272.656 452.327 272.416 453.793 271.936 455.1C271.456 456.407 270.769 457.52 269.876 458.44C268.996 459.36 267.929 460.067 266.676 460.56C265.436 461.053 264.056 461.3 262.536 461.3C261.002 461.3 259.609 461.053 258.356 460.56C257.102 460.067 256.029 459.36 255.136 458.44C254.256 457.52 253.569 456.407 253.076 455.1C252.596 453.793 252.356 452.327 252.356 450.7C252.356 449.087 252.596 447.627 253.076 446.32C253.569 445.013 254.256 443.907 255.136 443C256.029 442.093 257.102 441.393 258.356 440.9C259.609 440.407 261.002 440.16 262.536 440.16ZM262.536 457.5C264.242 457.5 265.502 456.927 266.316 455.78C267.142 454.633 267.556 452.953 267.556 450.74C267.556 448.527 267.142 446.84 266.316 445.68C265.502 444.52 264.242 443.94 262.536 443.94C260.802 443.94 259.516 444.527 258.676 445.7C257.849 446.86 257.436 448.54 257.436 450.74C257.436 452.94 257.849 454.62 258.676 455.78C259.516 456.927 260.802 457.5 262.536 457.5ZM281.044 443C281.458 442.587 281.891 442.207 282.344 441.86C282.811 441.5 283.298 441.2 283.804 440.96C284.324 440.707 284.878 440.513 285.464 440.38C286.051 440.233 286.691 440.16 287.384 440.16C288.504 440.16 289.498 440.353 290.364 440.74C291.231 441.113 291.951 441.647 292.524 442.34C293.111 443.02 293.551 443.84 293.844 444.8C294.151 445.747 294.304 446.793 294.304 447.94V461H289.364V447.94C289.364 446.687 289.078 445.72 288.504 445.04C287.931 444.347 287.058 444 285.884 444C285.031 444 284.231 444.193 283.484 444.58C282.738 444.967 282.031 445.493 281.364 446.16V461H276.424V440.48H279.444C280.084 440.48 280.504 440.78 280.704 441.38L281.044 443ZM305.569 461.32C303.782 461.32 302.409 460.82 301.449 459.82C300.502 458.807 300.029 457.413 300.029 455.64V444.18H297.929C297.662 444.18 297.436 444.093 297.249 443.92C297.062 443.747 296.969 443.487 296.969 443.14V441.18L300.269 440.64L301.309 435.04C301.376 434.773 301.502 434.567 301.689 434.42C301.876 434.273 302.116 434.2 302.409 434.2H304.969V440.66H310.449V444.18H304.969V455.3C304.969 455.94 305.122 456.44 305.429 456.8C305.749 457.16 306.182 457.34 306.729 457.34C307.036 457.34 307.289 457.307 307.489 457.24C307.702 457.16 307.882 457.08 308.029 457C308.189 456.92 308.329 456.847 308.449 456.78C308.569 456.7 308.689 456.66 308.809 456.66C308.956 456.66 309.076 456.7 309.169 456.78C309.262 456.847 309.362 456.953 309.469 457.1L310.949 459.5C310.229 460.1 309.402 460.553 308.469 460.86C307.536 461.167 306.569 461.32 305.569 461.32ZM326.676 448.38C326.676 447.74 326.582 447.14 326.396 446.58C326.222 446.007 325.956 445.507 325.596 445.08C325.236 444.653 324.776 444.32 324.216 444.08C323.669 443.827 323.029 443.7 322.296 443.7C320.869 443.7 319.742 444.107 318.916 444.92C318.102 445.733 317.582 446.887 317.356 448.38H326.676ZM317.256 451.36C317.336 452.413 317.522 453.327 317.816 454.1C318.109 454.86 318.496 455.493 318.976 456C319.456 456.493 320.022 456.867 320.676 457.12C321.342 457.36 322.076 457.48 322.876 457.48C323.676 457.48 324.362 457.387 324.936 457.2C325.522 457.013 326.029 456.807 326.456 456.58C326.896 456.353 327.276 456.147 327.596 455.96C327.929 455.773 328.249 455.68 328.556 455.68C328.969 455.68 329.276 455.833 329.476 456.14L330.896 457.94C330.349 458.58 329.736 459.12 329.056 459.56C328.376 459.987 327.662 460.333 326.916 460.6C326.182 460.853 325.429 461.033 324.656 461.14C323.896 461.247 323.156 461.3 322.436 461.3C321.009 461.3 319.682 461.067 318.456 460.6C317.229 460.12 316.162 459.42 315.256 458.5C314.349 457.567 313.636 456.42 313.116 455.06C312.596 453.687 312.336 452.1 312.336 450.3C312.336 448.9 312.562 447.587 313.016 446.36C313.469 445.12 314.116 444.047 314.956 443.14C315.809 442.22 316.842 441.493 318.056 440.96C319.282 440.427 320.662 440.16 322.196 440.16C323.489 440.16 324.682 440.367 325.776 440.78C326.869 441.193 327.809 441.8 328.596 442.6C329.382 443.387 329.996 444.36 330.436 445.52C330.889 446.667 331.116 447.98 331.116 449.46C331.116 450.207 331.036 450.713 330.876 450.98C330.716 451.233 330.409 451.36 329.956 451.36H317.256ZM339.443 443C339.856 442.587 340.289 442.207 340.743 441.86C341.209 441.5 341.696 441.2 342.203 440.96C342.723 440.707 343.276 440.513 343.863 440.38C344.449 440.233 345.089 440.16 345.783 440.16C346.903 440.16 347.896 440.353 348.763 440.74C349.629 441.113 350.349 441.647 350.923 442.34C351.509 443.02 351.949 443.84 352.243 444.8C352.549 445.747 352.703 446.793 352.703 447.94V461H347.763V447.94C347.763 446.687 347.476 445.72 346.903 445.04C346.329 444.347 345.456 444 344.283 444C343.429 444 342.629 444.193 341.883 444.58C341.136 444.967 340.429 445.493 339.763 446.16V461H334.823V440.48H337.843C338.483 440.48 338.903 440.78 339.103 441.38L339.443 443ZM363.968 461.32C362.181 461.32 360.808 460.82 359.848 459.82C358.901 458.807 358.428 457.413 358.428 455.64V444.18H356.328C356.061 444.18 355.834 444.093 355.648 443.92C355.461 443.747 355.368 443.487 355.368 443.14V441.18L358.668 440.64L359.708 435.04C359.774 434.773 359.901 434.567 360.088 434.42C360.274 434.273 360.514 434.2 360.808 434.2H363.368V440.66H368.848V444.18H363.368V455.3C363.368 455.94 363.521 456.44 363.828 456.8C364.148 457.16 364.581 457.34 365.128 457.34C365.434 457.34 365.688 457.307 365.888 457.24C366.101 457.16 366.281 457.08 366.428 457C366.588 456.92 366.728 456.847 366.848 456.78C366.968 456.7 367.088 456.66 367.208 456.66C367.354 456.66 367.474 456.7 367.568 456.78C367.661 456.847 367.761 456.953 367.868 457.1L369.348 459.5C368.628 460.1 367.801 460.553 366.868 460.86C365.934 461.167 364.968 461.32 363.968 461.32ZM386.857 440.48V461H381.897V440.48H386.857ZM387.537 434.5C387.537 434.927 387.45 435.327 387.277 435.7C387.104 436.073 386.87 436.4 386.577 436.68C386.297 436.96 385.964 437.187 385.577 437.36C385.19 437.52 384.777 437.6 384.337 437.6C383.91 437.6 383.504 437.52 383.117 437.36C382.744 437.187 382.417 436.96 382.137 436.68C381.857 436.4 381.63 436.073 381.457 435.7C381.297 435.327 381.217 434.927 381.217 434.5C381.217 434.06 381.297 433.647 381.457 433.26C381.63 432.873 381.857 432.54 382.137 432.26C382.417 431.98 382.744 431.76 383.117 431.6C383.504 431.427 383.91 431.34 384.337 431.34C384.777 431.34 385.19 431.427 385.577 431.6C385.964 431.76 386.297 431.98 386.577 432.26C386.87 432.54 387.104 432.873 387.277 433.26C387.45 433.647 387.537 434.06 387.537 434.5ZM404.413 444.48C404.28 444.693 404.14 444.847 403.993 444.94C403.846 445.02 403.66 445.06 403.433 445.06C403.193 445.06 402.933 444.993 402.653 444.86C402.386 444.727 402.073 444.58 401.713 444.42C401.353 444.247 400.94 444.093 400.473 443.96C400.02 443.827 399.48 443.76 398.853 443.76C397.88 443.76 397.113 443.967 396.553 444.38C396.006 444.793 395.733 445.333 395.733 446C395.733 446.44 395.873 446.813 396.153 447.12C396.446 447.413 396.826 447.673 397.293 447.9C397.773 448.127 398.313 448.333 398.913 448.52C399.513 448.693 400.12 448.887 400.733 449.1C401.36 449.313 401.973 449.56 402.573 449.84C403.173 450.107 403.706 450.453 404.173 450.88C404.653 451.293 405.033 451.793 405.313 452.38C405.606 452.967 405.753 453.673 405.753 454.5C405.753 455.487 405.573 456.4 405.213 457.24C404.866 458.067 404.346 458.787 403.653 459.4C402.96 460 402.1 460.473 401.073 460.82C400.06 461.153 398.886 461.32 397.553 461.32C396.846 461.32 396.153 461.253 395.473 461.12C394.806 461 394.16 460.827 393.533 460.6C392.92 460.373 392.346 460.107 391.813 459.8C391.293 459.493 390.833 459.16 390.433 458.8L391.573 456.92C391.72 456.693 391.893 456.52 392.093 456.4C392.293 456.28 392.546 456.22 392.853 456.22C393.16 456.22 393.446 456.307 393.713 456.48C393.993 456.653 394.313 456.84 394.673 457.04C395.033 457.24 395.453 457.427 395.933 457.6C396.426 457.773 397.046 457.86 397.793 457.86C398.38 457.86 398.88 457.793 399.293 457.66C399.72 457.513 400.066 457.327 400.333 457.1C400.613 456.873 400.813 456.613 400.933 456.32C401.066 456.013 401.133 455.7 401.133 455.38C401.133 454.9 400.986 454.507 400.693 454.2C400.413 453.893 400.033 453.627 399.553 453.4C399.086 453.173 398.546 452.973 397.933 452.8C397.333 452.613 396.713 452.413 396.073 452.2C395.446 451.987 394.826 451.74 394.213 451.46C393.613 451.167 393.073 450.8 392.593 450.36C392.126 449.92 391.746 449.38 391.453 448.74C391.173 448.1 391.033 447.327 391.033 446.42C391.033 445.58 391.2 444.78 391.533 444.02C391.866 443.26 392.353 442.6 392.993 442.04C393.646 441.467 394.453 441.013 395.413 440.68C396.386 440.333 397.506 440.16 398.773 440.16C400.186 440.16 401.473 440.393 402.633 440.86C403.793 441.327 404.76 441.94 405.533 442.7L404.413 444.48ZM424.198 431.28V461H419.258V431.28H424.198ZM438.2 440.16C439.72 440.16 441.1 440.407 442.34 440.9C443.593 441.393 444.66 442.093 445.54 443C446.433 443.907 447.12 445.013 447.6 446.32C448.08 447.627 448.32 449.087 448.32 450.7C448.32 452.327 448.08 453.793 447.6 455.1C447.12 456.407 446.433 457.52 445.54 458.44C444.66 459.36 443.593 460.067 442.34 460.56C441.1 461.053 439.72 461.3 438.2 461.3C436.666 461.3 435.273 461.053 434.02 460.56C432.766 460.067 431.693 459.36 430.8 458.44C429.92 457.52 429.233 456.407 428.74 455.1C428.26 453.793 428.02 452.327 428.02 450.7C428.02 449.087 428.26 447.627 428.74 446.32C429.233 445.013 429.92 443.907 430.8 443C431.693 442.093 432.766 441.393 434.02 440.9C435.273 440.407 436.666 440.16 438.2 440.16ZM438.2 457.5C439.906 457.5 441.166 456.927 441.98 455.78C442.806 454.633 443.22 452.953 443.22 450.74C443.22 448.527 442.806 446.84 441.98 445.68C441.166 444.52 439.906 443.94 438.2 443.94C436.466 443.94 435.18 444.527 434.34 445.7C433.513 446.86 433.1 448.54 433.1 450.74C433.1 452.94 433.513 454.62 434.34 455.78C435.18 456.927 436.466 457.5 438.2 457.5ZM462.928 452.24C461.502 452.307 460.302 452.433 459.328 452.62C458.355 452.793 457.575 453.02 456.988 453.3C456.402 453.58 455.982 453.907 455.728 454.28C455.475 454.653 455.348 455.06 455.348 455.5C455.348 456.367 455.602 456.987 456.108 457.36C456.628 457.733 457.302 457.92 458.128 457.92C459.142 457.92 460.015 457.74 460.748 457.38C461.495 457.007 462.222 456.447 462.928 455.7V452.24ZM451.608 443.34C453.968 441.18 456.808 440.1 460.128 440.1C461.328 440.1 462.402 440.3 463.348 440.7C464.295 441.087 465.095 441.633 465.748 442.34C466.402 443.033 466.895 443.867 467.228 444.84C467.575 445.813 467.748 446.88 467.748 448.04V461H465.508C465.042 461 464.682 460.933 464.428 460.8C464.175 460.653 463.975 460.367 463.828 459.94L463.388 458.46C462.868 458.927 462.362 459.34 461.868 459.7C461.375 460.047 460.862 460.34 460.328 460.58C459.795 460.82 459.222 461 458.608 461.12C458.008 461.253 457.342 461.32 456.608 461.32C455.742 461.32 454.942 461.207 454.208 460.98C453.475 460.74 452.842 460.387 452.308 459.92C451.775 459.453 451.362 458.873 451.068 458.18C450.775 457.487 450.628 456.68 450.628 455.76C450.628 455.24 450.715 454.727 450.888 454.22C451.062 453.7 451.342 453.207 451.728 452.74C452.128 452.273 452.642 451.833 453.268 451.42C453.895 451.007 454.662 450.647 455.568 450.34C456.488 450.033 457.555 449.787 458.768 449.6C459.982 449.4 461.368 449.28 462.928 449.24V448.04C462.928 446.667 462.635 445.653 462.048 445C461.462 444.333 460.615 444 459.508 444C458.708 444 458.042 444.093 457.508 444.28C456.988 444.467 456.528 444.68 456.128 444.92C455.728 445.147 455.362 445.353 455.028 445.54C454.708 445.727 454.348 445.82 453.948 445.82C453.602 445.82 453.308 445.733 453.068 445.56C452.828 445.373 452.635 445.16 452.488 444.92L451.608 443.34ZM485.281 445.72C484.721 445.04 484.108 444.56 483.441 444.28C482.788 444 482.081 443.86 481.321 443.86C480.574 443.86 479.901 444 479.301 444.28C478.701 444.56 478.188 444.987 477.761 445.56C477.334 446.12 477.008 446.84 476.781 447.72C476.554 448.587 476.441 449.613 476.441 450.8C476.441 452 476.534 453.02 476.721 453.86C476.921 454.687 477.201 455.367 477.561 455.9C477.921 456.42 478.361 456.8 478.881 457.04C479.401 457.267 479.981 457.38 480.621 457.38C481.648 457.38 482.521 457.167 483.241 456.74C483.961 456.313 484.641 455.707 485.281 454.92V445.72ZM490.221 431.28V461H487.201C486.548 461 486.134 460.7 485.961 460.1L485.541 458.12C484.714 459.067 483.761 459.833 482.681 460.42C481.614 461.007 480.368 461.3 478.941 461.3C477.821 461.3 476.794 461.067 475.861 460.6C474.928 460.133 474.121 459.46 473.441 458.58C472.774 457.687 472.254 456.587 471.881 455.28C471.521 453.973 471.341 452.48 471.341 450.8C471.341 449.28 471.548 447.867 471.961 446.56C472.374 445.253 472.968 444.12 473.741 443.16C474.514 442.2 475.441 441.453 476.521 440.92C477.601 440.373 478.814 440.1 480.161 440.1C481.308 440.1 482.288 440.28 483.101 440.64C483.914 441 484.641 441.487 485.281 442.1V431.28H490.221ZM500.216 440.48V461H495.256V440.48H500.216ZM500.896 434.5C500.896 434.927 500.81 435.327 500.636 435.7C500.463 436.073 500.23 436.4 499.936 436.68C499.656 436.96 499.323 437.187 498.936 437.36C498.55 437.52 498.136 437.6 497.696 437.6C497.27 437.6 496.863 437.52 496.476 437.36C496.103 437.187 495.776 436.96 495.496 436.68C495.216 436.4 494.99 436.073 494.816 435.7C494.656 435.327 494.576 434.927 494.576 434.5C494.576 434.06 494.656 433.647 494.816 433.26C494.99 432.873 495.216 432.54 495.496 432.26C495.776 431.98 496.103 431.76 496.476 431.6C496.863 431.427 497.27 431.34 497.696 431.34C498.136 431.34 498.55 431.427 498.936 431.6C499.323 431.76 499.656 431.98 499.936 432.26C500.23 432.54 500.463 432.873 500.636 433.26C500.81 433.647 500.896 434.06 500.896 434.5ZM509.873 443C510.286 442.587 510.719 442.207 511.173 441.86C511.639 441.5 512.126 441.2 512.633 440.96C513.153 440.707 513.706 440.513 514.293 440.38C514.879 440.233 515.519 440.16 516.213 440.16C517.333 440.16 518.326 440.353 519.193 440.74C520.059 441.113 520.779 441.647 521.353 442.34C521.939 443.02 522.379 443.84 522.673 444.8C522.979 445.747 523.133 446.793 523.133 447.94V461H518.193V447.94C518.193 446.687 517.906 445.72 517.333 445.04C516.759 444.347 515.886 444 514.713 444C513.859 444 513.059 444.193 512.313 444.58C511.566 444.967 510.859 445.493 510.193 446.16V461H505.253V440.48H508.273C508.913 440.48 509.333 440.78 509.533 441.38L509.873 443ZM535.331 450.24C535.944 450.24 536.477 450.16 536.931 450C537.384 449.827 537.757 449.593 538.051 449.3C538.357 449.007 538.584 448.653 538.731 448.24C538.891 447.827 538.971 447.373 538.971 446.88C538.971 445.867 538.664 445.067 538.051 444.48C537.451 443.88 536.544 443.58 535.331 443.58C534.117 443.58 533.204 443.88 532.591 444.48C531.991 445.067 531.691 445.867 531.691 446.88C531.691 447.36 531.764 447.807 531.911 448.22C532.071 448.633 532.297 448.993 532.591 449.3C532.897 449.593 533.277 449.827 533.731 450C534.197 450.16 534.731 450.24 535.331 450.24ZM540.911 461.92C540.911 461.52 540.791 461.193 540.551 460.94C540.311 460.687 539.984 460.493 539.571 460.36C539.157 460.213 538.671 460.107 538.111 460.04C537.564 459.973 536.977 459.927 536.351 459.9C535.737 459.86 535.097 459.827 534.431 459.8C533.777 459.773 533.137 459.72 532.511 459.64C531.964 459.947 531.517 460.307 531.171 460.72C530.837 461.133 530.671 461.613 530.671 462.16C530.671 462.52 530.757 462.853 530.931 463.16C531.117 463.48 531.404 463.753 531.791 463.98C532.191 464.207 532.704 464.38 533.331 464.5C533.957 464.633 534.724 464.7 535.631 464.7C536.551 464.7 537.344 464.627 538.011 464.48C538.677 464.347 539.224 464.153 539.651 463.9C540.091 463.66 540.411 463.367 540.611 463.02C540.811 462.687 540.911 462.32 540.911 461.92ZM545.831 441.18V443.02C545.831 443.607 545.477 443.967 544.771 444.1L542.931 444.44C543.211 445.147 543.351 445.92 543.351 446.76C543.351 447.773 543.144 448.693 542.731 449.52C542.331 450.333 541.771 451.027 541.051 451.6C540.331 452.173 539.477 452.62 538.491 452.94C537.517 453.247 536.464 453.4 535.331 453.4C534.931 453.4 534.544 453.38 534.171 453.34C533.797 453.3 533.431 453.247 533.071 453.18C532.431 453.567 532.111 454 532.111 454.48C532.111 454.893 532.297 455.2 532.671 455.4C533.057 455.587 533.564 455.72 534.191 455.8C534.817 455.88 535.531 455.933 536.331 455.96C537.131 455.973 537.951 456.013 538.791 456.08C539.631 456.147 540.451 456.267 541.251 456.44C542.051 456.6 542.764 456.86 543.391 457.22C544.017 457.58 544.517 458.073 544.891 458.7C545.277 459.313 545.471 460.107 545.471 461.08C545.471 461.987 545.244 462.867 544.791 463.72C544.351 464.573 543.704 465.333 542.851 466C542.011 466.667 540.971 467.2 539.731 467.6C538.504 468.013 537.104 468.22 535.531 468.22C533.984 468.22 532.637 468.067 531.491 467.76C530.344 467.467 529.391 467.067 528.631 466.56C527.871 466.067 527.304 465.493 526.931 464.84C526.557 464.187 526.371 463.507 526.371 462.8C526.371 461.84 526.657 461.04 527.231 460.4C527.817 459.747 528.617 459.227 529.631 458.84C529.084 458.56 528.651 458.187 528.331 457.72C528.011 457.253 527.851 456.64 527.851 455.88C527.851 455.573 527.904 455.26 528.011 454.94C528.131 454.607 528.297 454.28 528.511 453.96C528.737 453.64 529.017 453.34 529.351 453.06C529.684 452.767 530.077 452.507 530.531 452.28C529.491 451.72 528.671 450.973 528.071 450.04C527.484 449.107 527.191 448.013 527.191 446.76C527.191 445.747 527.391 444.833 527.791 444.02C528.204 443.193 528.771 442.493 529.491 441.92C530.224 441.333 531.084 440.887 532.071 440.58C533.071 440.273 534.157 440.12 535.331 440.12C536.211 440.12 537.037 440.213 537.811 440.4C538.584 440.573 539.291 440.833 539.931 441.18H545.831ZM548.243 458.28C548.243 457.867 548.317 457.473 548.463 457.1C548.623 456.727 548.837 456.407 549.103 456.14C549.37 455.873 549.69 455.66 550.063 455.5C550.437 455.34 550.837 455.26 551.263 455.26C551.69 455.26 552.083 455.34 552.443 455.5C552.817 455.66 553.137 455.873 553.403 456.14C553.683 456.407 553.903 456.727 554.063 457.1C554.223 457.473 554.303 457.867 554.303 458.28C554.303 458.707 554.223 459.107 554.063 459.48C553.903 459.84 553.683 460.153 553.403 460.42C553.137 460.687 552.817 460.893 552.443 461.04C552.083 461.2 551.69 461.28 551.263 461.28C550.837 461.28 550.437 461.2 550.063 461.04C549.69 460.893 549.37 460.687 549.103 460.42C548.837 460.153 548.623 459.84 548.463 459.48C548.317 459.107 548.243 458.707 548.243 458.28ZM557.736 458.28C557.736 457.867 557.809 457.473 557.956 457.1C558.116 456.727 558.329 456.407 558.596 456.14C558.862 455.873 559.182 455.66 559.556 455.5C559.929 455.34 560.329 455.26 560.756 455.26C561.182 455.26 561.576 455.34 561.936 455.5C562.309 455.66 562.629 455.873 562.896 456.14C563.176 456.407 563.396 456.727 563.556 457.1C563.716 457.473 563.796 457.867 563.796 458.28C563.796 458.707 563.716 459.107 563.556 459.48C563.396 459.84 563.176 460.153 562.896 460.42C562.629 460.687 562.309 460.893 561.936 461.04C561.576 461.2 561.182 461.28 560.756 461.28C560.329 461.28 559.929 461.2 559.556 461.04C559.182 460.893 558.862 460.687 558.596 460.42C558.329 460.153 558.116 459.84 557.956 459.48C557.809 459.107 557.736 458.707 557.736 458.28ZM567.228 458.28C567.228 457.867 567.301 457.473 567.448 457.1C567.608 456.727 567.821 456.407 568.088 456.14C568.354 455.873 568.674 455.66 569.048 455.5C569.421 455.34 569.821 455.26 570.248 455.26C570.674 455.26 571.068 455.34 571.428 455.5C571.801 455.66 572.121 455.873 572.388 456.14C572.668 456.407 572.888 456.727 573.048 457.1C573.208 457.473 573.288 457.867 573.288 458.28C573.288 458.707 573.208 459.107 573.048 459.48C572.888 459.84 572.668 460.153 572.388 460.42C572.121 460.687 571.801 460.893 571.428 461.04C571.068 461.2 570.674 461.28 570.248 461.28C569.821 461.28 569.421 461.2 569.048 461.04C568.674 460.893 568.354 460.687 568.088 460.42C567.821 460.153 567.608 459.84 567.448 459.48C567.301 459.107 567.228 458.707 567.228 458.28Z" fill="#5B5B5B"/>
<path fill-rule="evenodd" clip-rule="evenodd" d="M388.498 378.173L415.905 344L460 398.983H407.721H371.81H340L373.861 362.328L388.498 378.173Z" fill="#5B5B5B"/>
<circle cx="10" cy="10" r="10" transform="matrix(-1 0 0 1 389 334)" fill="#5B5B5B"/>
</svg>
